<?xml version="1.0" encoding="UTF-8" standalone="no"?>
<!DOCTYPE svg PUBLIC "-//W3C//DTD SVG 1.1//EN" "http://www.w3.org/Graphics/SVG/1.1/DTD/svg11.dtd">
<!-- Created with Vectornator (http://vectornator.io/) -->
<svg height="100%" stroke-miterlimit="10" style="fill-rule:nonzero;clip-rule:evenodd;stroke-linecap:round;stroke-linejoin:round;" version="1.1" viewBox="0 0 76 76" width="100%" xml:space="preserve" xmlns="http://www.w3.org/2000/svg" xmlns:xlink="http://www.w3.org/1999/xlink">
<defs/>
<g id="Untitled">
<path d="M60.78 32.065C62.545 32.822 63.786 33.791 64.649 34.987C65.973 36.824 66.385 39.198 66.385 42.126C66.385 42.138 66.385 52.815 66.385 52.815C66.385 59.106 63.891 65.295 54.984 65.997L9.497 65.997L9.497 54.953L48.571 54.953C50.147 54.953 51.422 53.674 51.422 52.103L51.422 45.691C51.422 44.121 50.148 42.839 48.571 42.839L9.497 42.852L9.497 9.001L66.503 9.001L66.503 20.397L26.031 20.397L26.031 32.065" fill="#840000" fill-rule="nonzero" opacity="1" stroke="none"/>
</g>
</svg>
