<?xml version="1.0" encoding="UTF-8" standalone="no"?>
<!DOCTYPE svg PUBLIC "-//W3C//DTD SVG 1.1//EN" "http://www.w3.org/Graphics/SVG/1.1/DTD/svg11.dtd">
<!-- Created with Vectornator (http://vectornator.io/) -->
<svg height="100%" stroke-miterlimit="10" style="fill-rule:nonzero;clip-rule:evenodd;stroke-linecap:round;stroke-linejoin:round;" version="1.1" viewBox="0 0 76 76" width="100%" xml:space="preserve" xmlns="http://www.w3.org/2000/svg" xmlns:xlink="http://www.w3.org/1999/xlink">
<defs/>
<g id="Untitled">
<path d="M66.856 31.087C66.856 33.464 66.127 35.668 64.879 37.5C66.126 39.326 66.856 41.536 66.856 43.912L66.856 54.6C66.856 60.89 61.752 66 55.456 66L20.544 66C14.254 66 9.144 60.89 9.144 54.6L9.144 43.912C9.144 41.536 9.873 39.326 11.126 37.5C9.874 35.668 9.144 33.464 9.144 31.087L9.144 20.4C9.144 14.105 14.254 9 20.544 9L55.456 9C61.752 9 66.856 14.104 66.856 20.4C66.856 20.4 66.856 31.087 66.856 31.087ZM51.182 22.538C51.182 20.963 49.907 19.688 48.331 19.688L27.669 19.688C26.099 19.688 24.818 20.963 24.818 22.538L24.818 28.951C24.818 30.52 26.098 31.801 27.669 31.801L48.331 31.801C49.906 31.801 51.182 30.521 51.182 28.951L51.182 22.538ZM51.182 46.05C51.182 44.475 49.907 43.2 48.331 43.2L27.669 43.2C26.099 43.2 24.818 44.474 24.818 46.05L24.818 52.463C24.818 54.032 26.098 55.313 27.669 55.313L48.331 55.313C49.906 55.313 51.182 54.033 51.182 52.463L51.182 46.05Z" fill="#757575" fill-rule="nonzero" opacity="1" stroke="none"/>
</g>
</svg>
