<?xml version="1.0" encoding="UTF-8" standalone="no"?>
<!DOCTYPE svg PUBLIC "-//W3C//DTD SVG 1.1//EN" "http://www.w3.org/Graphics/SVG/1.1/DTD/svg11.dtd">
<!-- Created with Vectornator (http://vectornator.io/) -->
<svg height="100%" stroke-miterlimit="10" style="fill-rule:nonzero;clip-rule:evenodd;stroke-linecap:round;stroke-linejoin:round;" version="1.1" viewBox="0 0 76 76" width="100%" xml:space="preserve" xmlns="http://www.w3.org/2000/svg" xmlns:xlink="http://www.w3.org/1999/xlink">
<defs/>
<g id="Untitled">
<path d="M51.256 26.134L51.256 21.589C51.256 20.044 49.963 18.793 48.364 18.793L27.393 18.793C25.8 18.793 24.501 20.044 24.501 21.589L24.501 26.134L8.593 26.134L8.593 20.192C8.593 14.011 13.778 9 20.163 9L55.596 9C61.984 9 67.165 14.011 67.165 20.191C67.165 24.255 68.452 28.639 64.644 31.608C61.995 33.67 58.696 35.43 55.887 37.351C48.894 42.128 41.804 46.782 34.794 51.539C33.884 52.16 31.087 54.815 29.924 54.815C29.936 54.815 67.526 54.815 67.526 54.815L67.526 66L8.774 66C8.774 61.471 7.169 56.137 11.383 52.747C14.332 50.375 18.156 48.432 21.315 46.245C29.315 40.688 37.574 35.466 45.602 29.939C46.188 29.535 51.256 26.874 51.256 26.134Z" fill="#008200" fill-rule="nonzero" opacity="1" stroke="none"/>
</g>
</svg>
