<?xml version="1.0" encoding="UTF-8" standalone="no"?>
<!DOCTYPE svg PUBLIC "-//W3C//DTD SVG 1.1//EN" "http://www.w3.org/Graphics/SVG/1.1/DTD/svg11.dtd">
<!-- Created with Vectornator (http://vectornator.io/) -->
<svg height="100%" stroke-miterlimit="10" style="fill-rule:nonzero;clip-rule:evenodd;stroke-linecap:round;stroke-linejoin:round;" version="1.1" viewBox="0 0 76 76" width="100%" xml:space="preserve" xmlns="http://www.w3.org/2000/svg" xmlns:xlink="http://www.w3.org/1999/xlink">
<defs/>
<g id="Untitled">
<path d="M66.856 23.967L66.856 20.402C66.856 14.106 61.747 9.002 55.457 9.002L20.544 9.002C14.254 9.002 9.144 14.106 9.144 20.402L9.144 54.599C9.144 60.889 14.254 65.999 20.544 65.999L55.457 65.999C61.747 65.999 66.856 60.889 66.856 54.599L66.856 43.911C66.856 38.927 61.935 31.801 55.451 31.801L27.669 31.801C26.1 31.801 24.819 30.521 24.819 28.951L24.819 22.539C24.819 20.964 26.099 19.688 27.669 19.688L48.332 19.688C49.901 19.688 51.182 20.963 51.182 22.539L51.182 23.544L66.856 23.967ZM25.531 47.474C25.531 45.905 26.811 44.624 28.382 44.624L49.044 44.624C50.614 44.624 51.895 45.904 51.895 47.474L51.895 53.886C51.895 55.456 50.615 56.737 49.044 56.737L28.382 56.737C26.812 56.737 25.531 55.457 25.531 53.886C25.531 53.886 25.531 47.474 25.531 47.474Z" fill="#008284" fill-rule="nonzero" opacity="1" stroke="none"/>
</g>
</svg>
