<?xml version="1.0" encoding="UTF-8" standalone="no"?>
<!DOCTYPE svg PUBLIC "-//W3C//DTD SVG 1.1//EN" "http://www.w3.org/Graphics/SVG/1.1/DTD/svg11.dtd">
<!-- Created with Vectornator (http://vectornator.io/) -->
<svg height="100%" stroke-miterlimit="10" style="fill-rule:nonzero;clip-rule:evenodd;stroke-linecap:round;stroke-linejoin:round;" version="1.1" viewBox="0 0 76 76" width="100%" xml:space="preserve" xmlns="http://www.w3.org/2000/svg" xmlns:xlink="http://www.w3.org/1999/xlink">
<defs/>
<g id="Untitled">
<path d="M66.322 20.4C66.322 14.105 61.218 9 54.922 9L9.678 9L9.678 19.688L48.51 19.688C50.085 19.688 51.36 20.963 51.36 22.538L51.36 28.951C51.36 30.52 50.086 31.801 48.51 31.801L26.778 31.801L26.778 44.626L48.51 44.626C50.085 44.626 51.36 45.9 51.36 47.476L51.36 53.889C51.36 55.458 50.086 56.739 48.51 56.739L9.678 56.739L9.678 66L54.922 66C61.218 66 66.322 60.89 66.322 54.6L66.322 43.912C66.322 41.536 65.593 39.326 64.345 37.5C65.592 35.668 66.322 33.464 66.322 31.087L66.322 20.4Z" fill="#ff0000" fill-rule="nonzero" opacity="1" stroke="none"/>
</g>
</svg>
